<svg width="512" height="512" xmlns="http://www.w3.org/2000/svg">

 <g>
  <title>background</title>
  <rect fill="none" id="canvas_background" height="402" width="582" y="-1" x="-1"/>
 </g>
 <g>
  <title>Layer 1</title>
  <path fill="#0de1f2" id="svg_1" d="m107.999997,428.1877a32.387,32.387 0 0 0 32.3506,32.3506l252.6646,0a30.8487,30.8487 0 0 0 28.51,-19.154l0,-45.5467l-281.1746,0a32.387,32.387 0 0 0 -32.3506,32.3501z"/>
  <path fill="#0de1f2" id="svg_2" d="m200.4724,145.7937a21.01,21.01 0 0 0 -20.9863,20.9863l0,27.2422a20.9863,20.9863 0 0 0 41.9726,0l0,-27.2422a21.01,21.01 0 0 0 -20.9863,-20.9863z"/>
  <path fill="#0de1f2" id="svg_3" d="m412.0125,51.4617l-273.8625,0a48.2169,48.2169 0 0 0 -48.1625,48.1626l0,316.3076a48.0859,48.0859 0 0 0 1.5073,11.9719a49.403,49.403 0 0 1 49.3433,-49.0662l281.1744,0l0,-317.3759a10,10 0 0 0 -10,-10zm-173.5538,142.5605a38.0444,38.0444 0 0 1 -29.4863,37.0156l0,94.5865a8.5,8.5 0 1 1 -17,0l0,-94.5865a38.0444,38.0444 0 0 1 -29.4863,-37.0156l0,-27.2422a37.9863,37.9863 0 0 1 75.9726,0l0,27.2422zm106.419,-27.2422a38.045,38.045 0 0 1 -29.4863,37.0156l0,94.5865a8.5,8.5 0 0 1 -17,0l0,-67.3443a38.045,38.045 0 0 1 -29.4864,-37.0156l0,-48.7578a8.5,8.5 0 0 1 17,0l0,48.7578a21.0045,21.0045 0 0 0 12.4864,19.171l0,-65.8975a8.5,8.5 0 0 1 17,0l0,65.8975a21.0044,21.0044 0 0 0 12.4863,-19.171l0,-48.7578a8.5,8.5 0 0 1 17,0l0,21.5156z"/>
 </g>
</svg>